<svg width="100" height="100" viewBox="0 0 100 100" fill="none" xmlns="http://www.w3.org/2000/svg">
<g clip-path="url(#clip0_5275_163)">
<path d="M71.393 50C71.3865 44.3282 69.1307 38.8906 65.1201 34.88C61.1096 30.8695 55.6719 28.6136 50.0002 28.6072C44.3284 28.6136 38.8908 30.8695 34.8803 34.88C30.8697 38.8906 28.6138 44.3282 28.6073 50C28.603 55.3429 30.6057 60.4924 34.2187 64.4285L29.6701 68.9785C29.5237 69.1254 29.424 69.3123 29.3837 69.5157C29.3434 69.7191 29.3641 69.9299 29.4434 70.1215C29.5227 70.3131 29.6571 70.477 29.8293 70.5924C30.0016 70.7078 30.2043 70.7696 30.4116 70.77C30.5496 70.7705 30.6863 70.7436 30.8138 70.6909C30.9414 70.6382 31.0571 70.5606 31.1544 70.4628L35.7102 65.9071C39.6283 69.442 44.7188 71.3973 49.9959 71.3943C55.6674 71.3875 61.1047 69.1313 65.1149 65.1208C69.1251 61.1103 71.3809 55.6729 71.3873 50.0014L71.393 50ZM60.323 48.95H51.0501V31.6928C53.7339 33.7446 55.9493 36.3452 57.5484 39.321C59.1474 42.2969 60.0933 45.5796 60.323 48.95ZM48.9502 30.7357V48.95H39.6773C39.9733 43.7861 42.0167 38.8763 45.4716 35.0271C45.6548 34.8174 45.7471 34.5435 45.7284 34.2657C45.7096 33.9879 45.5813 33.7289 45.3716 33.5457C45.1621 33.3624 44.8883 33.2697 44.6105 33.2882C44.3327 33.3067 44.0736 33.4348 43.8902 33.6443C40.0987 37.875 37.8702 43.2766 37.5758 48.95H30.7359C31.0005 44.2053 33.0044 39.7246 36.3646 36.3644C39.7248 33.0042 44.2055 31.0003 48.9502 30.7357ZM30.7359 51.05H37.5758C37.7784 54.4836 38.6726 57.8411 40.2046 60.9207C41.7367 64.0003 43.8751 66.7386 46.4916 68.9715C42.2387 68.1783 38.3748 65.9812 35.5183 62.7321C32.6618 59.4829 30.9778 55.3695 30.7359 51.05ZM39.6759 51.05H48.9502V68.2971C46.2569 66.2565 44.0346 63.6599 42.4342 60.6838C40.8339 57.7078 39.8931 54.422 39.6759 51.05ZM51.0501 69.2642V51.05H60.3215C60.0117 56.3977 57.8347 61.4672 54.1702 65.3743C53.9829 65.5803 53.8851 65.8521 53.8982 66.1302C53.9113 66.4082 54.0343 66.6697 54.2402 66.8571C54.342 66.9501 54.4611 67.0221 54.5908 67.069C54.7204 67.1159 54.8581 67.1367 54.9958 67.1304C55.1335 67.124 55.2687 67.0906 55.3935 67.0319C55.5183 66.9733 55.6302 66.8906 55.723 66.7886C59.7428 62.4967 62.1164 56.9222 62.4245 51.05H65.7487C66.0272 51.05 66.2942 50.9393 66.4912 50.7424C66.6881 50.5455 66.7988 50.2785 66.7988 50C66.7988 49.7215 66.6881 49.4544 66.4912 49.2575C66.2942 49.0606 66.0272 48.95 65.7487 48.95H62.4245C62.2219 45.5168 61.3281 42.1598 59.7968 39.0803C58.2655 36.0008 56.1282 33.2621 53.513 31.0285C57.9425 31.8549 61.944 34.2034 64.8254 37.6676C67.7069 41.1318 69.2872 45.494 69.293 50C69.2872 54.9333 67.3941 59.6774 64.002 63.2594C60.6099 66.8415 55.9758 68.9899 51.0501 69.2642ZM73.6216 72.2643L68.5316 67.1757C68.3347 66.979 68.0678 66.8684 67.7895 66.8684C67.5111 66.8684 67.2442 66.979 67.0473 67.1757C66.8506 67.3726 66.7401 67.6395 66.7401 67.9178C66.7401 68.1961 66.8506 68.4631 67.0473 68.66L72.1645 73.7771C71.6895 74.5422 71.4275 75.4202 71.4054 76.3204C71.3834 77.2207 71.6021 78.1105 72.039 78.8979C72.4759 79.6853 73.115 80.3417 73.8905 80.7994C74.666 81.2571 75.5497 81.4995 76.4502 81.5014C77.7898 81.4999 79.0742 80.9671 80.0214 80.0199C80.9687 79.0726 81.5015 77.7882 81.503 76.4486C81.5012 75.532 81.2504 74.6331 80.7773 73.848C80.3042 73.0629 79.6266 72.4212 78.8169 71.9915C78.0073 71.5617 77.0961 71.3601 76.1807 71.4082C75.2654 71.4562 74.3803 71.7521 73.6201 72.2643H73.6216ZM76.4516 79.4071C75.6687 79.4063 74.918 79.095 74.3644 78.5414C73.8108 77.9878 73.4995 77.2371 73.4988 76.4542C73.4995 75.6713 73.8108 74.9207 74.3644 74.3671C74.918 73.8135 75.6687 73.5022 76.4516 73.5014C77.2345 73.5022 77.9851 73.8135 78.5387 74.3671C79.0923 74.9207 79.4037 75.6713 79.4045 76.4542C79.4014 77.2366 79.0883 77.986 78.5337 78.5379C77.9791 79.0898 77.2283 79.3993 76.4459 79.3985L76.4516 79.4071ZM26.2316 27.85L31.3488 32.9672C31.5457 33.1639 31.8126 33.2743 32.0909 33.2743C32.3692 33.2743 32.6362 33.1639 32.8331 32.9672C33.0298 32.7703 33.1402 32.5033 33.1402 32.225C33.1402 31.9467 33.0298 31.6798 32.8331 31.4829L27.7445 26.3928C28.2561 25.6325 28.5516 24.7475 28.5994 23.8324C28.6472 22.9172 28.4455 22.0062 28.0158 21.1968C27.5862 20.3873 26.9447 19.7098 26.1599 19.2366C25.3751 18.7634 24.4766 18.5122 23.5602 18.5099C22.2205 18.5115 20.9362 19.0443 19.9889 19.9916C19.0416 20.9389 18.5088 22.2232 18.5073 23.5629C18.5116 24.4617 18.7553 25.3431 19.2133 26.1165C19.6714 26.8899 20.3272 27.5272 21.1134 27.963C21.8995 28.3988 22.7875 28.6172 23.6861 28.5958C24.5847 28.5745 25.4614 28.3141 26.2259 27.8414L26.2316 27.85ZM23.5602 20.61C24.3431 20.6107 25.0937 20.9221 25.6473 21.4757C26.2009 22.0293 26.5123 22.78 26.513 23.5629C26.5123 24.3458 26.2009 25.0964 25.6473 25.65C25.0937 26.2036 24.3431 26.5149 23.5602 26.5157C22.7772 26.5149 22.0266 26.2036 21.473 25.65C20.9194 25.0964 20.608 24.3458 20.6073 23.5629C20.6058 22.7795 20.9153 22.0274 21.468 21.4722C22.0206 20.9169 22.771 20.6037 23.5544 20.6014L23.5602 20.61ZM23.5602 71.4014C22.2205 71.403 20.9362 71.9358 19.9889 72.883C19.0416 73.8303 18.5088 75.1146 18.5073 76.4542C18.5088 77.7938 19.0416 79.0782 19.9889 80.0254C20.9362 80.9727 22.2205 81.5057 23.5602 81.5072C24.8998 81.5057 26.1842 80.9727 27.1314 80.0254C28.0787 79.0782 28.6115 77.7938 28.613 76.4542C28.6134 75.7896 28.4828 75.1316 28.2287 74.5175C27.9747 73.9035 27.6021 73.3455 27.1324 72.8754C26.6626 72.4054 26.1049 72.0326 25.491 71.7782C24.877 71.5238 24.2189 71.3928 23.5544 71.3928L23.5602 71.4014ZM23.5602 79.4015C22.7772 79.4007 22.0266 79.0893 21.473 78.5357C20.9194 77.9821 20.608 77.2315 20.6073 76.4486C20.608 75.6657 20.9194 74.915 21.473 74.3614C22.0266 73.8078 22.7772 73.4965 23.5602 73.4957C24.3431 73.4965 25.0937 73.8078 25.6473 74.3614C26.2009 74.915 26.5123 75.6657 26.513 76.4486C26.5115 77.232 26.199 77.9827 25.6443 78.5358C25.0895 79.089 24.3378 79.3993 23.5544 79.3985L23.5602 79.4015ZM68.5316 32.83L73.6216 27.7414C74.3819 28.2531 75.2669 28.5485 76.1821 28.5963C77.0972 28.6441 78.0082 28.4425 78.8176 28.0129C79.6271 27.5832 80.3046 26.9416 80.7778 26.1569C81.2511 25.3721 81.5022 24.4735 81.5044 23.5571C81.5029 22.2175 80.9701 20.9331 80.0228 19.9859C79.0756 19.0386 77.7912 18.5058 76.4516 18.5043C75.5513 18.5067 74.6679 18.7493 73.8927 19.2071C73.1175 19.665 72.4785 20.3213 72.0417 21.1086C71.6049 21.8958 71.3861 22.7854 71.408 23.6855C71.4298 24.5855 71.6914 25.4634 72.1659 26.2285L67.0488 31.3457C66.852 31.5426 66.7415 31.8095 66.7415 32.0878C66.7415 32.3661 66.852 32.6331 67.0488 32.83C67.2457 33.0242 67.5113 33.1328 67.7879 33.1322C68.0645 33.1317 68.3297 33.0221 68.5259 32.8271L68.5316 32.83ZM76.4516 20.6042C77.2345 20.605 77.9851 20.9164 78.5387 21.47C79.0923 22.0236 79.4037 22.7742 79.4045 23.5571C79.4037 24.34 79.0923 25.0906 78.5387 25.6443C77.9851 26.1979 77.2345 26.5092 76.4516 26.51C75.6687 26.5092 74.918 26.1979 74.3644 25.6443C73.8108 25.0906 73.4995 24.34 73.4988 23.5571C73.4988 22.7747 73.8089 22.0242 74.3614 21.4701C74.9138 20.9161 75.6635 20.6037 76.4459 20.6014L76.4516 20.6042Z" fill="#E73030"/>
</g>
<defs>
<clipPath id="clip0_5275_163">
<rect width="100" height="100" fill="white"/>
</clipPath>
</defs>
</svg>
